# Blender v3.1.2 OBJ File: 'vacuum.blend'
# www.blender.org
mtllib vacuum.mtl
o Cube
v 1.000000 0.397994 -0.397994
v 1.000000 -0.397994 -0.397994
v 1.000000 0.397994 0.397994
v 1.000000 -0.397994 0.397994
v -1.000000 0.755922 -0.755922
v -1.000000 -0.755922 -0.755922
v -1.000000 0.755922 0.755922
v -1.000000 -0.755922 0.755922
v -1.000000 -1.000000 -1.000000
v -1.000000 -1.000000 1.000000
v -1.000000 1.000000 1.000000
v -1.000000 1.000000 -1.000000
v -0.248232 0.367382 -0.497977
v -0.248232 -0.367382 -0.497977
v -0.248232 0.367382 0.497977
v -0.248232 -0.367382 0.497977
v 1.000000 0.457553 -0.457553
v 1.000000 -0.457553 -0.457553
v 1.000000 0.457553 0.457553
v 1.000000 -0.457553 0.457553
v 1.706377 0.397994 -0.397994
v 1.706377 -0.397994 -0.397994
v 1.706377 0.397994 0.397994
v 1.706377 -0.397994 0.397994
v 1.000000 -1.399290 -0.397994
v 1.000000 -1.399290 0.397994
v 1.706377 -1.399290 -0.397994
v 1.706377 -1.399290 0.397994
v 1.634023 0.367382 -0.303514
v 1.634488 -0.381622 -0.298050
v 1.634023 0.367382 0.303514
v 1.634488 -0.381622 0.298050
v 0.530694 0.367382 -0.400745
v 0.530694 0.367382 0.400745
v 1.044805 -0.381925 0.324925
v 1.044805 -0.381925 -0.324925
v 1.635072 -1.330969 -0.298050
v 1.635072 -1.330969 0.298050
v 1.045389 -1.331272 0.324925
v 1.045389 -1.331272 -0.324925
vt 0.557194 0.567806
vt 0.875000 0.500000
vt 0.875000 0.750000
vt 0.557194 0.682194
vt 0.442806 0.682194
vt 0.625000 1.000000
vt 0.375000 1.000000
vt 0.594490 0.030510
vt 0.594490 0.219490
vt 0.594490 0.219490
vt 0.594490 0.030510
vt 0.125000 0.500000
vt 0.442806 0.567806
vt 0.125000 0.750000
vt 0.549749 0.575251
vt 0.549749 0.674749
vt 0.549749 0.674749
vt 0.549749 0.575251
vt 0.375000 0.250000
vt 0.625000 0.250000
vt 0.405510 0.030510
vt 0.405510 0.219490
vt 0.375000 0.000000
vt 0.625000 0.000000
vt 0.594490 0.030510
vt 0.594490 0.219490
vt 0.594490 0.219490
vt 0.594490 0.030510
vt 0.405510 0.030510
vt 0.405510 0.219490
vt 0.450251 0.575251
vt 0.450251 0.674749
vt 0.450251 0.575251
vt 0.450251 0.674749
vt 0.450251 0.674749
vt 0.450251 0.674749
vt 0.450251 0.575251
vt 0.450251 0.575251
vt 0.405510 0.030510
vt 0.405510 0.219490
vt 0.405510 0.030510
vt 0.405510 0.219490
vt 0.405510 0.030510
vt 0.405510 0.219490
vt 0.405510 0.030510
vt 0.405510 0.219490
vn 0.2618 0.9651 0.0000
vn 0.2618 0.0000 0.9651
vn -0.4591 -0.8884 0.0000
vn 0.2618 -0.9651 0.0000
vn 0.0000 1.0000 0.0000
vn 0.2618 0.0000 -0.9651
vn -1.0000 0.0000 0.0000
vn 0.0000 -1.0000 0.0000
vn -0.3245 0.0000 -0.9459
vn -0.3245 0.0000 0.9459
vn -0.4591 0.8884 0.0000
vn 1.0000 0.0000 0.0000
vn 0.0000 0.0000 -1.0000
vn 0.0000 0.0000 1.0000
vn -1.0000 -0.0006 0.0000
vn -0.0731 0.0290 -0.9969
vn -0.0731 0.0290 0.9969
vn 1.0000 0.0006 0.0000
vn 0.0112 0.9999 0.0000
vn -0.1293 0.0059 0.9916
vn -0.1293 0.0059 -0.9916
vn -0.0005 1.0000 0.0000
vn -0.0455 -0.0000 -0.9990
vn -0.0455 -0.0000 0.9990
usemtl Material
s off
f 17/1/1 12/2/1 11/3/1 19/4/1
f 20/5/2 19/4/2 11/6/2 10/7/2
f 7/8/3 5/9/3 13/10/3 15/11/3
f 9/12/4 18/13/4 20/5/4 10/14/4
f 1/15/5 3/16/5 23/17/5 21/18/5
f 9/19/6 12/20/6 17/1/6 18/13/6
f 8/21/7 6/22/7 9/19/7 10/23/7
f 7/8/7 8/21/7 10/23/7 11/24/7
f 6/22/7 5/9/7 12/20/7 9/19/7
f 5/9/7 7/8/7 11/24/7 12/20/7
f 34/25/8 33/26/8 29/27/8 31/28/8
f 8/21/9 7/8/9 15/11/9 16/29/9
f 5/9/10 6/22/10 14/30/10 13/10/10
f 6/22/11 8/21/11 16/29/11 14/30/11
f 1/15/12 2/31/12 18/13/12 17/1/12
f 4/32/12 3/16/12 19/4/12 20/5/12
f 3/16/12 1/15/12 17/1/12 19/4/12
f 2/31/12 4/32/12 20/5/12 18/13/12
f 22/33/12 21/18/12 23/17/12 24/34/12
f 2/31/13 1/15/13 21/18/13 22/33/13
f 24/34/14 4/32/14 26/35/14 28/36/14
f 3/16/14 4/32/14 24/34/14 23/17/14
f 26/35/8 25/37/8 27/38/8 28/36/8
f 22/33/12 24/34/12 28/36/12 27/38/12
f 4/32/7 2/31/7 25/37/7 26/35/7
f 2/31/13 22/33/13 27/38/13 25/37/13
f 32/39/15 31/28/15 29/27/15 30/40/15
f 35/41/16 34/25/16 31/28/16 32/39/16
f 33/26/17 36/42/17 30/40/17 29/27/17
f 36/42/18 35/41/18 39/43/18 40/44/18
f 14/30/19 16/29/19 35/41/19 36/42/19
f 13/10/20 14/30/20 36/42/20 33/26/20
f 16/29/21 15/11/21 34/25/21 35/41/21
f 15/11/8 13/10/8 33/26/8 34/25/8
f 40/44/22 39/43/22 38/45/22 37/46/22
f 35/41/23 32/39/23 38/45/23 39/43/23
f 32/39/15 30/40/15 37/46/15 38/45/15
f 30/40/24 36/42/24 40/44/24 37/46/24
